<svg width="104" height="104" viewBox="0 0 104 104" fill="none" xmlns="http://www.w3.org/2000/svg">
<g transform="translate(1 5)"><g id="Group 48">
<rect id="Rectangle 64" x="0.5" y="0.500001" width="100" height="93" stroke="#EAEBE5"/>
<path id="Subtract" d="M6.49707 1H0.59082V11H0V9.6165e-07H6.49707V1Z" fill="black"/>
<path id="Subtract_2" d="M94.5029 93L100.409 93L100.409 83L101 83L101 94L94.5029 94L94.5029 93Z" fill="black"/>
<path id="Subtract_3" d="M100.409 11L100.409 1L94.5029 1L94.5029 0L101 4.80825e-07L101 11L100.409 11Z" fill="black"/>
<path id="Subtract_4" d="M0.590822 83L0.59082 93L6.49707 93L6.49707 94L0 94L1.44248e-06 83L0.590822 83Z" fill="black"/>
</g></g>
<rect x="27" y="29" width="7" height="7" fill="#000000"/>
<rect x="27" y="68" width="7" height="7" fill="#C2C2BC"/>
<rect x="67" y="29" width="7" height="7" fill="#C2C2BC"/>
<rect x="62" y="63" width="17" height="17" fill="#DFE3CE"/>
<rect x="67" y="68" width="7" height="7" fill="#8A9467"/>
</svg>
