<svg width="104" height="104" viewBox="0 0 104 104" fill="none" xmlns="http://www.w3.org/2000/svg">
<g id="Secure Evidence Locker">
<rect id="Rectangle 9" x="9.5" y="10.5" width="83" height="83" stroke="#D3D3D3"/>
<path id="Rectangle 14" d="M38 38H50.5H63V52.5C63 59.4036 57.4036 65 50.5 65C43.5964 65 38 59.4036 38 52.5V38Z" fill="#D6DAC7"/>
<g id="Group 6">
<path id="Rectangle 10" d="M17.5 43.5V60.5H0.5V43.5H17.5Z" fill="#F4F4F3" stroke="black"/>
<line id="Line 5" x1="4" y1="43.5" x2="14" y2="43.5" stroke="#F4F4F3"/>
<line id="Line 6" x1="4" y1="60.5" x2="14" y2="60.5" stroke="#F4F4F3"/>
<line id="Line 7" x1="0.5" y1="47" x2="0.5" y2="57" stroke="#F4F4F3"/>
<line id="Line 8" x1="17.5" y1="47" x2="17.5" y2="57" stroke="#F4F4F3"/>
</g>
<g id="Group 10">
<path id="Rectangle 10_2" d="M101.5 41.5V58.5H84.5V41.5H101.5Z" fill="#F4F4F3" stroke="black"/>
<line id="Line 5_2" x1="88" y1="41.5" x2="98" y2="41.5" stroke="#F4F4F3"/>
<line id="Line 6_2" x1="88" y1="58.5" x2="98" y2="58.5" stroke="#F4F4F3"/>
<line id="Line 7_2" x1="84.5" y1="45" x2="84.5" y2="55" stroke="#F4F4F3"/>
<line id="Line 8_2" x1="101.5" y1="45" x2="101.5" y2="55" stroke="#F4F4F3"/>
</g>
<g id="Group 7">
<path id="Rectangle 10_3" d="M59.5 85.5V102.5H42.5V85.5H59.5Z" fill="#F9F9F9" stroke="black"/>
<line id="Line 5_3" x1="46" y1="85.5" x2="56" y2="85.5" stroke="white"/>
<line id="Line 6_3" x1="46" y1="102.5" x2="56" y2="102.5" stroke="white"/>
<line id="Line 7_3" x1="42.5" y1="89" x2="42.5" y2="99" stroke="white"/>
<line id="Line 8_3" x1="59.5" y1="89" x2="59.5" y2="99" stroke="white"/>
</g>
<g id="Group 9">
<path id="Rectangle 10_4" d="M59.5 0.5V17.5H42.5V0.5H59.5Z" fill="white" stroke="black"/>
<line id="Line 5_4" x1="46" y1="0.5" x2="56" y2="0.500001" stroke="white"/>
<line id="Line 6_4" x1="46" y1="17.5" x2="56" y2="17.5" stroke="white"/>
<line id="Line 7_4" x1="42.5" y1="4" x2="42.5" y2="14" stroke="white"/>
<line id="Line 8_4" x1="59.5" y1="4" x2="59.5" y2="14" stroke="white"/>
</g>
<g id="Group 11">
<path id="Rectangle 10_5" d="M59.5 85.5V102.5H42.5V85.5H59.5Z" fill="#F4F4F3" stroke="black"/>
<line id="Line 5_5" x1="46" y1="85.5" x2="56" y2="85.5" stroke="#F4F4F3"/>
<line id="Line 6_5" x1="46" y1="102.5" x2="56" y2="102.5" stroke="#F4F4F3"/>
<line id="Line 7_5" x1="42.5" y1="89" x2="42.5" y2="99" stroke="#F4F4F3"/>
<line id="Line 8_5" x1="59.5" y1="89" x2="59.5" y2="99" stroke="#F4F4F3"/>
</g>
<g id="Group 12">
<path id="Rectangle 10_6" d="M59.5 0.5V17.5H42.5V0.5H59.5Z" fill="#F4F4F3" stroke="black"/>
<line id="Line 5_6" x1="46" y1="0.5" x2="56" y2="0.500001" stroke="#F4F4F3"/>
<line id="Line 6_6" x1="46" y1="17.5" x2="56" y2="17.5" stroke="#F4F4F3"/>
<line id="Line 7_6" x1="42.5" y1="4" x2="42.5" y2="14" stroke="#F4F4F3"/>
<line id="Line 8_6" x1="59.5" y1="4" x2="59.5" y2="14" stroke="#F4F4F3"/>
</g>
</g>
<g transform="translate(43 43)"><g id="Frame">
<path id="Vector" d="M8.4375 8.67187C8.4375 8.90365 8.36877 9.13022 8.24 9.32293C8.11124 9.51565 7.92821 9.66585 7.71408 9.75455C7.49995 9.84324 7.26432 9.86645 7.037 9.82123C6.80968 9.77602 6.60087 9.66441 6.43698 9.50052C6.27309 9.33663 6.16148 9.12782 6.11627 8.9005C6.07105 8.67318 6.09426 8.43755 6.18295 8.22342C6.27165 8.00929 6.42185 7.82626 6.61457 7.6975C6.80728 7.56873 7.03385 7.5 7.26562 7.5C7.57643 7.5 7.8745 7.62346 8.09427 7.84323C8.31403 8.063 8.4375 8.36107 8.4375 8.67187ZM12.6562 5.15625V12.6562C12.6562 12.9049 12.5575 13.1433 12.3817 13.3192C12.2058 13.495 11.9674 13.5937 11.7188 13.5937H3.28125C3.03261 13.5937 2.79415 13.495 2.61834 13.3192C2.44252 13.1433 2.34375 12.9049 2.34375 12.6562V2.34375C2.34375 2.09511 2.44252 1.85665 2.61834 1.68084C2.79415 1.50502 3.03261 1.40625 3.28125 1.40625H8.90625C8.96783 1.4062 9.02881 1.41829 9.08571 1.44181C9.14262 1.46534 9.19433 1.49984 9.23789 1.54336L12.5191 4.82461C12.5627 4.86817 12.5972 4.91989 12.6207 4.97679C12.6442 5.03369 12.6563 5.09467 12.6562 5.15625ZM9.70664 10.4496L9.05039 9.79394C9.32703 9.35435 9.43201 8.82825 9.34528 8.31615C9.25855 7.80405 8.98618 7.34186 8.58021 7.01788C8.17425 6.6939 7.66315 6.53085 7.14456 6.55988C6.62598 6.58891 6.13628 6.80799 5.76901 7.17526C5.40174 7.54253 5.18266 8.03223 5.15363 8.55081C5.1246 9.0694 5.28765 9.5805 5.61163 9.98646C5.93561 10.3924 6.3978 10.6648 6.9099 10.7515C7.422 10.8383 7.9481 10.7333 8.38769 10.4566L9.04336 11.1129C9.08691 11.1564 9.13861 11.191 9.19552 11.2146C9.25242 11.2381 9.31341 11.2503 9.375 11.2503C9.43659 11.2503 9.49758 11.2381 9.55448 11.2146C9.61139 11.191 9.66309 11.1564 9.70664 11.1129C9.75019 11.0693 9.78474 11.0176 9.80831 10.9607C9.83188 10.9038 9.84401 10.8428 9.84401 10.7812C9.84401 10.7197 9.83188 10.6587 9.80831 10.6018C9.78474 10.5449 9.75019 10.4932 9.70664 10.4496ZM11.4844 5.15625L8.90625 2.57812V5.15625H11.4844Z" fill="#9CA575"/>
</g></g>
</svg>
